<?xml version="1.0" encoding="UTF-8" standalone="no"?>
<svg
   xmlns:dc="http://purl.org/dc/elements/1.1/"
   xmlns:cc="http://creativecommons.org/ns#"
   xmlns:rdf="http://www.w3.org/1999/02/22-rdf-syntax-ns#"
   xmlns:svg="http://www.w3.org/2000/svg"
   xmlns="http://www.w3.org/2000/svg"
   xmlns:sodipodi="http://sodipodi.sourceforge.net/DTD/sodipodi-0.dtd"
   xmlns:inkscape="http://www.inkscape.org/namespaces/inkscape"
   version="1.1"
   x="0px"
   y="0px"
   viewBox="0 0 100 100"
   enable-background="new 0 0 100 100"
   xml:space="preserve"
   id="svg3867"
   sodipodi:docname="swf-controller.svg"
   inkscape:version="0.92.2 (5c3e80d, 2017-08-06)"
   width="100"
   height="100"><metadata
     id="metadata3873"><rdf:RDF><cc:Work
         rdf:about=""><dc:format>image/svg+xml</dc:format><dc:type
           rdf:resource="http://purl.org/dc/dcmitype/StillImage" /><dc:title /></cc:Work></rdf:RDF></metadata><defs
     id="defs3871" /><sodipodi:namedview
     pagecolor="#ffffff"
     bordercolor="#666666"
     borderopacity="1"
     objecttolerance="10"
     gridtolerance="10"
     guidetolerance="10"
     inkscape:pageopacity="0"
     inkscape:pageshadow="2"
     inkscape:window-width="1920"
     inkscape:window-height="1017"
     id="namedview3869"
     showgrid="false"
     inkscape:zoom="7.2407734"
     inkscape:cx="10.901745"
     inkscape:cy="43.035039"
     inkscape:window-x="-8"
     inkscape:window-y="-8"
     inkscape:window-maximized="1"
     inkscape:current-layer="svg3867" /><g
     id="g3861"
     transform="rotate(-15,50,49.999999)"><path
       d="M 73.089,31.089 C 83.517,31.089 92,39.572 92,50 c 0,10.428 -8.483,18.911 -18.911,18.911 -5.992,0 -11.692,-2.889 -15.248,-7.729 -0.565,-0.769 -1.463,-1.224 -2.418,-1.224 H 44.577 c -0.955,0 -1.852,0.454 -2.418,1.224 -3.556,4.84 -9.256,7.729 -15.248,7.729 C 16.483,68.911 8,60.428 8,50 8,39.572 16.483,31.089 26.911,31.089 h 46.178 m 0,-3 H 26.911 C 14.81,28.089 5,37.899 5,50 c 0,12.101 9.81,21.911 21.911,21.911 7.252,0 13.678,-3.525 17.666,-8.953 h 10.846 c 3.988,5.428 10.414,8.953 17.666,8.953 C 85.19,71.911 95,62.101 95,50 95,37.899 85.19,28.089 73.089,28.089 Z"
       id="path3851"
       inkscape:connector-curvature="0" /><g
       id="g3857"><circle
         cx="78.803001"
         cy="44.285999"
         r="5"
         id="circle3853" /><circle
         cx="67.375"
         cy="55.714001"
         r="5"
         id="circle3855" /></g><path
       d="m 35.639,46.416 h -5.145 v -5.144 c 0,-1.979 -1.605,-3.584 -3.584,-3.584 v 0 c -1.979,0 -3.584,1.605 -3.584,3.584 v 5.144 h -5.144 c -1.979,0 -3.584,1.605 -3.584,3.584 v 0 c 0,1.979 1.605,3.584 3.584,3.584 h 5.144 v 5.145 c 0,1.979 1.605,3.584 3.584,3.584 v 0 c 1.979,0 3.584,-1.605 3.584,-3.584 v -5.145 h 5.145 c 1.979,0 3.584,-1.605 3.584,-3.584 v 0 c 10e-4,-1.979 -1.604,-3.584 -3.584,-3.584 z"
       id="path3859"
       inkscape:connector-curvature="0" /></g><path
     style="fill:#ffffff;fill-opacity:1;fill-rule:evenodd;stroke:#ffffff;stroke-width:0.13810679;stroke-opacity:1"
     d="M 25.798647,74.730156 C 17.269174,73.75604 10.487295,67.363843 9.1130716,59.003322 8.760711,56.859624 8.8880556,53.481608 9.394552,51.536613 c 1.671702,-6.4195 6.227439,-11.381772 12.293334,-13.39034 0.683628,-0.226366 11.488518,-3.154929 24.010867,-6.507917 16.44485,-4.403277 23.195285,-6.154513 24.306796,-6.305802 7.709372,-1.049337 15.560988,3.171536 19.137276,10.28782 1.300344,2.587495 1.944095,5.359111 1.943169,8.36617 -0.0016,5.161734 -1.880734,9.705464 -5.51824,13.342971 -3.779388,3.779387 -8.613909,5.674128 -13.954262,5.468944 -3.89206,-0.149539 -7.250346,-1.310281 -10.484317,-3.623746 -2.046658,-1.464107 -1.661679,-1.47745 -8.229154,0.285223 -3.038349,0.815477 -5.74179,1.572947 -6.007646,1.683268 -0.810446,0.336308 -1.225819,0.869483 -2.135323,2.740907 -1.068383,2.198343 -2.204942,3.815495 -3.779735,5.377989 -3.44512,3.418217 -7.782163,5.318435 -12.591252,5.516693 -0.873525,0.03601 -2.037864,0.01412 -2.587418,-0.04864 z m 5.69637,-7.03485 c 0.725078,-0.320363 1.424232,-1.031824 1.77584,-1.807097 0.445077,-0.981366 0.367089,-1.934112 -0.382686,-4.675149 -0.360293,-1.317162 -0.627012,-2.467976 -0.59271,-2.557365 0.0343,-0.08939 1.232676,-0.470076 2.663055,-0.845969 2.947214,-0.774509 3.590954,-1.106172 4.261412,-2.195539 0.330549,-0.537077 0.425828,-0.868309 0.468868,-1.630004 0.09391,-1.661933 -0.658028,-2.953689 -2.073909,-3.562784 -1.071389,-0.4609 -1.886003,-0.394354 -4.740351,0.387232 -1.367257,0.374385 -2.524016,0.641791 -2.570576,0.594232 -0.04656,-0.04756 -0.381595,-1.205135 -0.744523,-2.572392 -0.753196,-2.837504 -0.943247,-3.281679 -1.694586,-3.960468 -1.958681,-1.769551 -5.157609,-0.90101 -5.904719,1.603192 -0.293815,0.984824 -0.260501,1.246566 0.537325,4.221718 l 0.722185,2.693082 -2.42316,0.651638 c -3.226509,0.867673 -3.481871,0.97504 -4.188623,1.761118 -0.691125,0.768698 -0.928857,1.430817 -0.924586,2.575112 0.005,1.352143 0.710808,2.469159 1.964043,3.108512 1.061417,0.541494 1.704127,0.50099 4.703072,-0.296383 1.500971,-0.399085 2.74755,-0.701497 2.770178,-0.672026 0.02263,0.02947 0.363595,1.25965 0.757708,2.733732 0.760287,2.843677 1.004177,3.390843 1.772683,3.977011 1.128047,0.860404 2.561735,1.035172 3.84406,0.468597 z M 70.33292,55.603466 c 1.00875,-0.452699 2.109211,-1.536528 2.564871,-2.526106 0.246581,-0.535511 0.30228,-0.909969 0.303021,-2.03718 8.29e-4,-1.209232 -0.04498,-1.478956 -0.367862,-2.167794 -0.470425,-1.003591 -1.43169,-1.964856 -2.435282,-2.435281 -0.688204,-0.32259 -0.959675,-0.36877 -2.167793,-0.36877 -1.252845,0 -1.455148,0.03751 -2.178988,0.404067 -3.014911,1.526752 -3.769151,5.476756 -1.520938,7.96526 1.431842,1.584878 3.806231,2.061887 5.802971,1.165804 z m 8.01127,-13.954437 c 1.02331,-0.464573 1.609732,-0.949699 2.172041,-1.796852 2.044051,-3.079495 0.299093,-7.134813 -3.355161,-7.797455 -2.175361,-0.394469 -4.264367,0.687727 -5.366305,2.779977 -0.354653,0.673379 -0.38834,0.863633 -0.387347,2.187641 9.67e-4,1.245559 0.04719,1.543246 0.3279,2.110277 1.241341,2.507488 4.171226,3.623079 6.608872,2.516412 z"
     id="path6066"
     inkscape:connector-curvature="0" /></svg>