<?xml version="1.0" encoding="UTF-8" standalone="no"?>
<svg
   xmlns:dc="http://purl.org/dc/elements/1.1/"
   xmlns:cc="http://creativecommons.org/ns#"
   xmlns:rdf="http://www.w3.org/1999/02/22-rdf-syntax-ns#"
   xmlns:svg="http://www.w3.org/2000/svg"
   xmlns="http://www.w3.org/2000/svg"
   xmlns:sodipodi="http://sodipodi.sourceforge.net/DTD/sodipodi-0.dtd"
   xmlns:inkscape="http://www.inkscape.org/namespaces/inkscape"
   version="1.1"
   x="0px"
   y="0px"
   viewBox="0 0 100 125"
   enable-background="new 0 0 100 100"
   xml:space="preserve"
   id="svg3793"
   sodipodi:docname="swf-party.svg"
   inkscape:version="0.92.2 (5c3e80d, 2017-08-06)"><metadata
     id="metadata3799"><rdf:RDF><cc:Work
         rdf:about=""><dc:format>image/svg+xml</dc:format><dc:type
           rdf:resource="http://purl.org/dc/dcmitype/StillImage" /><dc:title></dc:title></cc:Work></rdf:RDF></metadata><defs
     id="defs3797" /><sodipodi:namedview
     pagecolor="#ffffff"
     bordercolor="#666666"
     borderopacity="1"
     objecttolerance="10"
     gridtolerance="10"
     guidetolerance="10"
     inkscape:pageopacity="0"
     inkscape:pageshadow="2"
     inkscape:window-width="1920"
     inkscape:window-height="1017"
     id="namedview3795"
     showgrid="false"
     inkscape:zoom="6.784"
     inkscape:cx="50"
     inkscape:cy="68.396226"
     inkscape:window-x="-8"
     inkscape:window-y="-8"
     inkscape:window-maximized="1"
     inkscape:current-layer="svg3793" /><g
     id="g3787"><g
       id="g3785"><path
         d="M49.085,53.553C49.086,53.553,49.086,53.553,49.085,53.553c0.259,0,0.52-0.021,0.783-0.06    c2.837-0.425,4.8-3.08,4.375-5.918c-0.415-2.783-3.044-4.807-5.917-4.379c-1.377,0.206-2.592,0.937-3.418,2.055    c-0.828,1.118-1.169,2.492-0.962,3.868C44.332,51.687,46.493,53.553,49.085,53.553z M46.09,46.124    c0.594-0.802,1.465-1.326,2.454-1.474c0.187-0.027,0.373-0.042,0.556-0.042c1.831,0,3.417,1.369,3.687,3.184    c0.305,2.038-1.103,3.942-3.137,4.247c-0.189,0.027-0.379,0.042-0.564,0.042c-1.859,0-3.409-1.339-3.685-3.183    C45.252,47.912,45.497,46.926,46.09,46.124z"
         id="path3777" /><path
         d="M57.012,50.849l-6.863,3.234h-1.871l-6.784-3.231l-4.187-8.545l-3.726,1.636l4.349,10.831l0.117,0.109    c0.204,0.193,0.434,0.352,0.66,0.458l6.317,3.291l0.121,11.381c0,0.003,0,0.008,0.001,0.012l-2.584,9.689    c-0.068,0.262-0.105,0.527-0.108,0.798l-0.069,13.696l6.196,0.024l0.072-13.279l0.881-3.31l0.816,3.699l1.576,13.265l6.155-0.73    l-1.597-13.453c-0.021-0.145-0.048-0.284-0.078-0.4l-2.228-10.085l0.002-0.021l-0.126-11.584l5.728-2.984    c0.253-0.122,0.479-0.279,0.677-0.469l0.116-0.109l4.351-10.831l-3.727-1.636L57.012,50.849z M63.029,44.716l-3.692,9.191    c-0.062,0.047-0.137,0.09-0.219,0.13l-6.546,3.413l0.139,12.497c-0.005-0.033-0.004-0.062-0.006-0.062    c0,0-0.002,0.012-0.006,0.043l-0.009,0.109l2.281,10.331c0.021,0.087,0.04,0.172,0.051,0.243l1.42,11.981l-3.235,0.383    l-1.412-11.875l-2.129-9.681l-2.462,9.248l-0.088,12.088l-3.253-0.014l0.062-12.215c0.002-0.146,0.022-0.295,0.06-0.436    l2.622-9.83l0.034-0.16l-0.153-12.363l-7.124-3.711c-0.067-0.033-0.132-0.071-0.193-0.117l-3.691-9.192l1.129-0.495l3.79,7.737    l7.546,3.598h2.534l7.628-3.596l3.791-7.739L63.029,44.716z"
         id="path3779" /><path
         d="M25.357,61.357l6.977-7.259l-2.729-2.96l-6.781,5.448l-2.646-0.624l3.556-2.942c0.492-0.487,0.769-1.133,0.776-1.857    l-0.401-10.15l-4.028-0.083l-0.777,9.045c-0.619,0.506-1.165,0.952-1.678,1.374c0.388-1.201,0.361-2.537-0.205-3.767    c-0.842-1.846-2.7-3.039-4.736-3.039c-0.751,0-1.479,0.16-2.166,0.474c-2.612,1.205-3.76,4.307-2.56,6.913    c0.845,1.842,2.702,3.032,4.729,3.032c0.187,0,0.374-0.012,0.559-0.03c-0.911,0.747-0.921,0.756-0.933,0.767    c-1.243,1.186-1.711,2.936-1.22,4.564l3.249,10.769l-0.02,10.119L11.23,93.015l6,1.563l3.011-11.556l1.07,11.865l6.175-0.559    L26.288,81.04c-0.017-0.182-0.05-0.359-0.095-0.531l-2.882-11.01l-0.047-0.162c-0.01-0.052-0.023-0.104-0.038-0.159l-2.304-7.644    l2.004,0.469C23.7,62.207,24.668,61.995,25.357,61.357z M9.295,51.315c-0.861-1.871-0.036-4.097,1.839-4.962    c0.491-0.224,1.014-0.34,1.552-0.34c1.46,0,2.793,0.855,3.397,2.18c0.86,1.869,0.039,4.089-1.832,4.951    c-0.497,0.229-1.022,0.346-1.563,0.346C11.234,53.49,9.902,52.637,9.295,51.315z M21.83,69.682    c0.009,0.06,0.019,0.115,0.031,0.172l0.186,0.724l0.022-0.006l2.699,10.313c0.025,0.097,0.043,0.193,0.053,0.29l1.065,11.822    l-3.244,0.296l-1.048-11.614l-0.558-2.181l-0.52-6.135l-0.715,0.042l-0.737,0.16l-0.019,7.987    c0.002,0.135-0.014,0.268-0.051,0.406l-2.82,10.825l-3.152-0.82l2.746-10.53l0.043-10.508l-3.311-11.087    c-0.33-1.096-0.014-2.273,0.791-3.043c0.133-0.111,7.184-5.877,7.184-5.877l0.24-0.197l0.711-8.291l1.264,0.026l0.346,8.725    c-0.004,0.299-0.125,0.579-0.292,0.75l-5.789,4.786l6.228,1.465l6.27-5.037l0.858,0.931l-5.985,6.23    c-0.278,0.259-0.692,0.362-1.048,0.271l-4.502-1.058L21.83,69.682z"
         id="path3781" /><path
         d="M89.481,44.888c-0.687-0.315-1.415-0.474-2.167-0.474c-2.034,0-3.893,1.191-4.736,3.034    c-0.532,1.163-0.578,2.415-0.26,3.56l-1.264-1.032l-0.775-9.044l-4.027,0.083l-0.149,3.804l-0.031-0.095l-3.896,1.041l2.014,9.91    c0.228,0.845,0.855,1.518,1.677,1.802l4.35,1.509l-2.98,9.879l-0.023-0.005L74.315,80.62c-0.045,0.174-0.078,0.353-0.097,0.537    l-1.197,13.286L79.196,95l1.005-11.141l2.794,10.719l5.998-1.563l-3.09-11.86l0.036-9.859l3.331-11.035    c0.539-1.799-0.111-3.769-1.595-4.883l-0.696-0.567c0.109,0.01,0.223,0.02,0.336,0.02c2.022,0,3.881-1.188,4.728-3.031    C93.24,49.188,92.092,46.09,89.481,44.888z M87.861,59.837L84.5,70.973l-0.068,10.271l2.767,10.719l-3.151,0.82L81.229,81.97    c-0.035-0.146-0.054-0.292-0.054-0.43l0.023-7.087l-1.47-0.059l-0.454,5.864l-0.348,1.423l-1.068,11.721l-3.239-0.291    l1.065-11.818c0.01-0.102,0.026-0.202,0.058-0.309l2.554-10.386l0.056,0.015l0.171-0.878c0.007-0.042,0.012-0.085,0.024-0.133    l3.485-11.546l-5.685-1.974c-0.36-0.125-0.637-0.421-0.726-0.749l-1.729-8.505l1.226-0.328l0.349,1.026l-0.147,3.688    c0.02,0.843,0.366,1.617,1.009,2.241l5.134,3.574l0.889-1.17l-4.688-3.882c-0.214-0.215-0.337-0.499-0.343-0.755l0.347-8.765    l1.264-0.026l0.712,8.292l7.124,5.816C87.784,57.3,88.222,58.628,87.861,59.837z M90.706,51.185    c-0.607,1.322-1.938,2.175-3.392,2.173c-0.542,0-1.068-0.114-1.566-0.345c-1.869-0.857-2.69-3.079-1.833-4.953    c0.604-1.322,1.94-2.176,3.399-2.176c0.538,0,1.061,0.114,1.554,0.34C90.741,47.087,91.566,49.312,90.706,51.185z"
         id="path3783" /></g></g><g
     transform="matrix(0.53054375,-0.14215877,0.14215877,0.53054375,15.80442,4.7552794)"
     id="g3861"><path
       inkscape:connector-curvature="0"
       d="M 73.089,31.089 C 83.517,31.089 92,39.572 92,50 c 0,10.428 -8.483,18.911 -18.911,18.911 -5.992,0 -11.692,-2.889 -15.248,-7.729 -0.565,-0.769 -1.463,-1.224 -2.418,-1.224 H 44.577 c -0.955,0 -1.852,0.454 -2.418,1.224 -3.556,4.84 -9.256,7.729 -15.248,7.729 C 16.483,68.911 8,60.428 8,50 8,39.572 16.483,31.089 26.911,31.089 h 46.178 m 0,-3 H 26.911 C 14.81,28.089 5,37.899 5,50 c 0,12.101 9.81,21.911 21.911,21.911 7.252,0 13.678,-3.525 17.666,-8.953 h 10.846 c 3.988,5.428 10.414,8.953 17.666,8.953 C 85.19,71.911 95,62.101 95,50 95,37.899 85.19,28.089 73.089,28.089 Z"
       id="path3851" /><g
       id="g3857"><circle
         cx="78.803001"
         cy="44.285999"
         r="5"
         id="circle3853" /><circle
         cx="67.375"
         cy="55.714001"
         r="5"
         id="circle3855" /></g><path
       inkscape:connector-curvature="0"
       d="m 35.639,46.416 h -5.145 v -5.144 c 0,-1.979 -1.605,-3.584 -3.584,-3.584 v 0 c -1.979,0 -3.584,1.605 -3.584,3.584 v 5.144 h -5.144 c -1.979,0 -3.584,1.605 -3.584,3.584 v 0 c 0,1.979 1.605,3.584 3.584,3.584 h 5.144 v 5.145 c 0,1.979 1.605,3.584 3.584,3.584 v 0 c 1.979,0 3.584,-1.605 3.584,-3.584 v -5.145 h 5.145 c 1.979,0 3.584,-1.605 3.584,-3.584 v 0 c 10e-4,-1.979 -1.604,-3.584 -3.584,-3.584 z"
       id="path3859" /></g></svg>