<?xml version="1.0" encoding="UTF-8" standalone="no"?>
<svg
   xmlns:dc="http://purl.org/dc/elements/1.1/"
   xmlns:cc="http://creativecommons.org/ns#"
   xmlns:rdf="http://www.w3.org/1999/02/22-rdf-syntax-ns#"
   xmlns:svg="http://www.w3.org/2000/svg"
   xmlns="http://www.w3.org/2000/svg"
   xmlns:sodipodi="http://sodipodi.sourceforge.net/DTD/sodipodi-0.dtd"
   xmlns:inkscape="http://www.inkscape.org/namespaces/inkscape"
   version="1.1"
   x="0px"
   y="0px"
   viewBox="0 0 100 100"
   enable-background="new 0 0 100 100"
   xml:space="preserve"
   id="svg3793"
   sodipodi:docname="swf-party.svg"
   inkscape:version="0.92.2 (5c3e80d, 2017-08-06)"
   width="100"
   height="100"><metadata
     id="metadata3799"><rdf:RDF><cc:Work
         rdf:about=""><dc:format>image/svg+xml</dc:format><dc:type
           rdf:resource="http://purl.org/dc/dcmitype/StillImage" /><dc:title /><cc:license
           rdf:resource="http://creativecommons.org/licenses/by/4.0/" /></cc:Work><cc:License
         rdf:about="http://creativecommons.org/licenses/by/4.0/"><cc:permits
           rdf:resource="http://creativecommons.org/ns#Reproduction" /><cc:permits
           rdf:resource="http://creativecommons.org/ns#Distribution" /><cc:requires
           rdf:resource="http://creativecommons.org/ns#Notice" /><cc:requires
           rdf:resource="http://creativecommons.org/ns#Attribution" /><cc:permits
           rdf:resource="http://creativecommons.org/ns#DerivativeWorks" /></cc:License></rdf:RDF></metadata><defs
     id="defs3797" /><sodipodi:namedview
     pagecolor="#ffffff"
     bordercolor="#666666"
     borderopacity="1"
     objecttolerance="10"
     gridtolerance="10"
     guidetolerance="10"
     inkscape:pageopacity="0"
     inkscape:pageshadow="2"
     inkscape:window-width="1920"
     inkscape:window-height="1017"
     id="namedview3795"
     showgrid="false"
     inkscape:zoom="6.784"
     inkscape:cx="31.942806"
     inkscape:cy="50.712774"
     inkscape:window-x="-8"
     inkscape:window-y="-8"
     inkscape:window-maximized="1"
     inkscape:current-layer="svg3793" /><g
     id="g3787"
     transform="translate(0,-2.446934)"
     style="fill:#000000;fill-opacity:1"><g
       id="g3785"
       style="fill:#000000;fill-opacity:1"><path
         d="m 49.085,53.553 c 10e-4,0 10e-4,0 0,0 0.259,0 0.52,-0.021 0.783,-0.06 2.837,-0.425 4.8,-3.08 4.375,-5.918 -0.415,-2.783 -3.044,-4.807 -5.917,-4.379 -1.377,0.206 -2.592,0.937 -3.418,2.055 -0.828,1.118 -1.169,2.492 -0.962,3.868 0.386,2.568 2.547,4.434 5.139,4.434 z M 46.09,46.124 c 0.594,-0.802 1.465,-1.326 2.454,-1.474 0.187,-0.027 0.373,-0.042 0.556,-0.042 1.831,0 3.417,1.369 3.687,3.184 0.305,2.038 -1.103,3.942 -3.137,4.247 -0.189,0.027 -0.379,0.042 -0.564,0.042 -1.859,0 -3.409,-1.339 -3.685,-3.183 -0.149,-0.986 0.096,-1.972 0.689,-2.774 z"
         id="path3777"
         inkscape:connector-curvature="0"
         style="fill:#000000;fill-opacity:1" /><path
         d="m 57.012,50.849 -6.863,3.234 h -1.871 l -6.784,-3.231 -4.187,-8.545 -3.726,1.636 4.349,10.831 0.117,0.109 c 0.204,0.193 0.434,0.352 0.66,0.458 l 6.317,3.291 0.121,11.381 c 0,0.003 0,0.008 10e-4,0.012 l -2.584,9.689 c -0.068,0.262 -0.105,0.527 -0.108,0.798 l -0.069,13.696 6.196,0.024 0.072,-13.279 0.881,-3.31 0.816,3.699 1.576,13.265 6.155,-0.73 -1.597,-13.453 c -0.021,-0.145 -0.048,-0.284 -0.078,-0.4 L 54.178,69.939 54.18,69.918 54.054,58.334 59.782,55.35 c 0.253,-0.122 0.479,-0.279 0.677,-0.469 l 0.116,-0.109 4.351,-10.831 -3.727,-1.636 z m 6.017,-6.133 -3.692,9.191 c -0.062,0.047 -0.137,0.09 -0.219,0.13 l -6.546,3.413 0.139,12.497 c -0.005,-0.033 -0.004,-0.062 -0.006,-0.062 0,0 -0.002,0.012 -0.006,0.043 l -0.009,0.109 2.281,10.331 c 0.021,0.087 0.04,0.172 0.051,0.243 l 1.42,11.981 -3.235,0.383 -1.412,-11.875 -2.129,-9.681 -2.462,9.248 -0.088,12.088 -3.253,-0.014 0.062,-12.215 c 0.002,-0.146 0.022,-0.295 0.06,-0.436 l 2.622,-9.83 0.034,-0.16 -0.153,-12.363 -7.124,-3.711 c -0.067,-0.033 -0.132,-0.071 -0.193,-0.117 l -3.691,-9.192 1.129,-0.495 3.79,7.737 7.546,3.598 h 2.534 l 7.628,-3.596 3.791,-7.739 z"
         id="path3779"
         inkscape:connector-curvature="0"
         style="fill:#000000;fill-opacity:1" /><path
         d="m 25.357,61.357 6.977,-7.259 -2.729,-2.96 -6.781,5.448 -2.646,-0.624 3.556,-2.942 c 0.492,-0.487 0.769,-1.133 0.776,-1.857 l -0.401,-10.15 -4.028,-0.083 -0.777,9.045 c -0.619,0.506 -1.165,0.952 -1.678,1.374 0.388,-1.201 0.361,-2.537 -0.205,-3.767 -0.842,-1.846 -2.7,-3.039 -4.736,-3.039 -0.751,0 -1.479,0.16 -2.166,0.474 -2.612,1.205 -3.76,4.307 -2.56,6.913 0.845,1.842 2.702,3.032 4.729,3.032 0.187,0 0.374,-0.012 0.559,-0.03 -0.911,0.747 -0.921,0.756 -0.933,0.767 -1.243,1.186 -1.711,2.936 -1.22,4.564 l 3.249,10.769 -0.02,10.119 -3.093,11.864 6,1.563 3.011,-11.556 1.07,11.865 6.175,-0.559 -1.198,-13.288 c -0.017,-0.182 -0.05,-0.359 -0.095,-0.531 l -2.882,-11.01 -0.047,-0.162 c -0.01,-0.052 -0.023,-0.104 -0.038,-0.159 l -2.304,-7.644 2.004,0.469 c 0.774,0.204 1.742,-0.008 2.431,-0.646 z M 9.295,51.315 c -0.861,-1.871 -0.036,-4.097 1.839,-4.962 0.491,-0.224 1.014,-0.34 1.552,-0.34 1.46,0 2.793,0.855 3.397,2.18 0.86,1.869 0.039,4.089 -1.832,4.951 -0.497,0.229 -1.022,0.346 -1.563,0.346 -1.454,0 -2.786,-0.853 -3.393,-2.175 z M 21.83,69.682 c 0.009,0.06 0.019,0.115 0.031,0.172 l 0.186,0.724 0.022,-0.006 2.699,10.313 c 0.025,0.097 0.043,0.193 0.053,0.29 l 1.065,11.822 -3.244,0.296 -1.048,-11.614 -0.558,-2.181 -0.52,-6.135 -0.715,0.042 -0.737,0.16 -0.019,7.987 c 0.002,0.135 -0.014,0.268 -0.051,0.406 l -2.82,10.825 -3.152,-0.82 2.746,-10.53 L 15.811,70.925 12.5,59.838 c -0.33,-1.096 -0.014,-2.273 0.791,-3.043 0.133,-0.111 7.184,-5.877 7.184,-5.877 l 0.24,-0.197 0.711,-8.291 1.264,0.026 0.346,8.725 c -0.004,0.299 -0.125,0.579 -0.292,0.75 l -5.789,4.786 6.228,1.465 6.27,-5.037 0.858,0.931 -5.985,6.23 c -0.278,0.259 -0.692,0.362 -1.048,0.271 l -4.502,-1.058 z"
         id="path3781"
         inkscape:connector-curvature="0"
         style="fill:#000000;fill-opacity:1" /><path
         d="m 89.481,44.888 c -0.687,-0.315 -1.415,-0.474 -2.167,-0.474 -2.034,0 -3.893,1.191 -4.736,3.034 -0.532,1.163 -0.578,2.415 -0.26,3.56 l -1.264,-1.032 -0.775,-9.044 -4.027,0.083 -0.149,3.804 -0.031,-0.095 -3.896,1.041 2.014,9.91 c 0.228,0.845 0.855,1.518 1.677,1.802 l 4.35,1.509 -2.98,9.879 -0.023,-0.005 -2.899,11.76 c -0.045,0.174 -0.078,0.353 -0.097,0.537 l -1.197,13.286 6.175,0.557 1.005,-11.141 2.794,10.719 5.998,-1.563 -3.09,-11.86 0.036,-9.859 3.331,-11.035 c 0.539,-1.799 -0.111,-3.769 -1.595,-4.883 l -0.696,-0.567 c 0.109,0.01 0.223,0.02 0.336,0.02 2.022,0 3.881,-1.188 4.728,-3.031 1.197,-2.612 0.049,-5.71 -2.562,-6.912 z m -1.62,14.949 -3.361,11.136 -0.068,10.271 2.767,10.719 -3.151,0.82 -2.819,-10.813 c -0.035,-0.146 -0.054,-0.292 -0.054,-0.43 l 0.023,-7.087 -1.47,-0.059 -0.454,5.864 -0.348,1.423 -1.068,11.721 -3.239,-0.291 1.065,-11.818 c 0.01,-0.102 0.026,-0.202 0.058,-0.309 l 2.554,-10.386 0.056,0.015 0.171,-0.878 c 0.007,-0.042 0.012,-0.085 0.024,-0.133 l 3.485,-11.546 -5.685,-1.974 c -0.36,-0.125 -0.637,-0.421 -0.726,-0.749 l -1.729,-8.505 1.226,-0.328 0.349,1.026 -0.147,3.688 c 0.02,0.843 0.366,1.617 1.009,2.241 l 5.134,3.574 0.889,-1.17 -4.688,-3.882 C 77.45,51.762 77.327,51.478 77.321,51.222 l 0.347,-8.765 1.264,-0.026 0.712,8.292 7.124,5.816 c 1.016,0.761 1.454,2.089 1.093,3.298 z m 2.845,-8.652 c -0.607,1.322 -1.938,2.175 -3.392,2.173 -0.542,0 -1.068,-0.114 -1.566,-0.345 -1.869,-0.857 -2.69,-3.079 -1.833,-4.953 0.604,-1.322 1.94,-2.176 3.399,-2.176 0.538,0 1.061,0.114 1.554,0.34 1.873,0.863 2.698,3.088 1.838,4.961 z"
         id="path3783"
         inkscape:connector-curvature="0"
         style="fill:#000000;fill-opacity:1" /></g></g><g
     transform="matrix(0.53054375,-0.14215877,0.14215877,0.53054375,16.36497,2.308345)"
     id="g3861"
     style="fill:#000000;fill-opacity:1"><path
       inkscape:connector-curvature="0"
       d="M 73.089,31.089 C 83.517,31.089 92,39.572 92,50 c 0,10.428 -8.483,18.911 -18.911,18.911 -5.992,0 -11.692,-2.889 -15.248,-7.729 -0.565,-0.769 -1.463,-1.224 -2.418,-1.224 H 44.577 c -0.955,0 -1.852,0.454 -2.418,1.224 -3.556,4.84 -9.256,7.729 -15.248,7.729 C 16.483,68.911 8,60.428 8,50 8,39.572 16.483,31.089 26.911,31.089 h 46.178 m 0,-3 H 26.911 C 14.81,28.089 5,37.899 5,50 c 0,12.101 9.81,21.911 21.911,21.911 7.252,0 13.678,-3.525 17.666,-8.953 h 10.846 c 3.988,5.428 10.414,8.953 17.666,8.953 C 85.19,71.911 95,62.101 95,50 95,37.899 85.19,28.089 73.089,28.089 Z"
       id="path3851"
       style="fill:#000000;fill-opacity:1" /><g
       id="g3857"
       style="fill:#000000;fill-opacity:1"><circle
         cx="78.803001"
         cy="44.285999"
         r="5"
         id="circle3853"
         style="fill:#000000;fill-opacity:1" /><circle
         cx="67.375"
         cy="55.714001"
         r="5"
         id="circle3855"
         style="fill:#000000;fill-opacity:1" /></g><path
       inkscape:connector-curvature="0"
       d="m 35.639,46.416 h -5.145 v -5.144 c 0,-1.979 -1.605,-3.584 -3.584,-3.584 v 0 c -1.979,0 -3.584,1.605 -3.584,3.584 v 5.144 h -5.144 c -1.979,0 -3.584,1.605 -3.584,3.584 v 0 c 0,1.979 1.605,3.584 3.584,3.584 h 5.144 v 5.145 c 0,1.979 1.605,3.584 3.584,3.584 v 0 c 1.979,0 3.584,-1.605 3.584,-3.584 v -5.145 h 5.145 c 1.979,0 3.584,-1.605 3.584,-3.584 v 0 c 10e-4,-1.979 -1.604,-3.584 -3.584,-3.584 z"
       id="path3859"
       style="fill:#000000;fill-opacity:1" /></g><path
     style="fill:#ffffff;fill-opacity:1;fill-rule:evenodd;stroke:#ffffff;stroke-width:0.14740565;stroke-opacity:1"
     d="m 35.996462,35.163454 c -4.116573,-0.802359 -7.222584,-3.711619 -8.275438,-7.751228 -0.326676,-1.253398 -0.321793,-3.585911 0.01018,-4.864387 0.79893,-3.07677 3.194772,-5.881356 5.996843,-7.01994 1.460531,-0.593466 26.562616,-7.2569235 27.739501,-7.36357 1.964077,-0.1779801 4.227382,0.3623287 6.073722,1.449953 3.399595,2.002601 5.455072,6.176889 4.935117,10.022295 -0.341368,2.524635 -1.19365,4.242564 -3.022046,6.091476 -1.935264,1.95698 -4.433457,3.002128 -7.190575,3.008265 -2.093861,0.0047 -4.207963,-0.669297 -5.964472,-1.901418 -0.466678,-0.327356 -1.04678,-0.632185 -1.289115,-0.677397 -0.557725,-0.104056 -6.749569,1.557869 -7.148186,1.918612 -0.153407,0.138831 -0.561136,0.825657 -0.906063,1.526282 -0.508158,1.03218 -0.880161,1.527861 -1.960759,2.612646 -1.086645,1.090856 -1.56565,1.452282 -2.586566,1.95166 -2.144732,1.04909 -4.369378,1.394904 -6.412146,0.996751 z m 3.815369,-3.680895 c 0.534554,-0.22335 1.026063,-0.826262 1.174396,-1.440576 0.05785,-0.23959 -0.06806,-1.018146 -0.323766,-2.001993 l -0.418432,-1.609935 1.396989,-0.355457 c 1.551296,-0.39472 2.102882,-0.672048 2.479313,-1.246555 0.322279,-0.491859 0.324517,-1.477508 0.0048,-2.093451 -0.513385,-0.988891 -1.553899,-1.148611 -3.66961,-0.563289 -0.70939,0.196256 -1.289799,0.334009 -1.289799,0.306117 0,-0.304556 -0.823403,-3.01989 -0.995322,-3.282272 -0.507373,-0.774349 -1.908728,-1.025154 -2.77532,-0.496708 -0.457487,0.278975 -0.94634,1.092533 -0.94634,1.574916 0,0.143309 0.174016,0.920302 0.386702,1.726651 0.310125,1.175764 0.348489,1.489706 0.193734,1.58535 -0.106132,0.06559 -0.76103,0.261735 -1.45533,0.43587 -0.705825,0.177026 -1.4715,0.476126 -1.736737,0.678433 -0.962727,0.734307 -0.980088,2.268834 -0.03467,3.064351 0.686828,0.577929 1.231895,0.607799 2.927883,0.160459 0.827443,-0.218249 1.527299,-0.373039 1.555235,-0.343976 0.02794,0.02906 0.222783,0.683 0.432992,1.453194 0.430006,1.575518 0.696541,2.023251 1.42581,2.395114 0.610427,0.311263 1.019636,0.324456 1.667509,0.05376 z m 21.270848,-6.585607 c 0.997932,-0.377045 1.703947,-1.431778 1.720401,-2.570151 0.01399,-0.967174 -0.40963,-1.78564 -1.22071,-2.358561 -0.533951,-0.377165 -0.761285,-0.442217 -1.545397,-0.442217 -0.756253,0 -1.028067,0.07194 -1.532149,0.40553 -0.630474,0.417228 -1.097973,1.1551 -1.25527,1.98124 -0.201275,1.057126 0.647506,2.571096 1.668488,2.97608 0.49606,0.196768 1.653794,0.201089 2.164637,0.0081 z m 4.982676,-8.012817 c 1.396452,-1.065126 1.616353,-2.865048 0.504709,-4.131139 -1.266602,-1.442581 -3.706487,-1.157884 -4.56919,0.533155 -0.455647,0.893143 -0.355799,2.237053 0.222543,2.995297 0.890548,1.167569 2.724214,1.455217 3.841938,0.602687 z"
     id="path6032"
     inkscape:connector-curvature="0" /><path
     style="fill:#ffffff;fill-opacity:1;fill-rule:evenodd;stroke:#ffffff;stroke-width:0.14740565;stroke-opacity:1"
     d="m 22.65625,90.538361 c 0,-1.239149 -1.074844,-11.754231 -1.261885,-12.344885 -0.176986,-0.5589 -0.77599,-5.894948 -0.798402,-7.112323 -0.0036,-0.195495 -0.716629,-0.245862 -1.293192,-0.09135 l -0.331663,0.08888 v 4.129042 4.129044 l -1.411679,5.397323 c -0.776424,2.968529 -1.43193,5.417575 -1.45668,5.442324 -0.04993,0.04993 -2.87966,-0.651838 -2.945895,-0.730572 -0.02292,-0.02725 0.577715,-2.404345 1.334749,-5.282441 l 1.376424,-5.232901 0.0038,-5.239282 0.0038,-5.239282 -1.710561,-5.740044 c -1.880346,-6.309785 -1.949942,-6.743504 -1.245541,-7.762161 0.185816,-0.268713 1.925366,-1.782055 3.865668,-3.362981 1.940302,-1.580925 3.634363,-2.990698 3.764582,-3.132828 0.183562,-0.200353 0.313019,-1.12774 0.576154,-4.127358 0.186667,-2.127918 0.342031,-3.951857 0.345254,-4.053198 0.0037,-0.11572 0.22518,-0.184257 0.595482,-0.184257 h 0.589623 v 0.592848 c 0,0.326067 0.07302,2.251724 0.162262,4.279238 0.08925,2.027514 0.123434,3.841097 0.07598,4.030186 -0.05394,0.214934 -1.189265,1.24921 -3.028961,2.759382 -1.61847,1.328573 -2.946144,2.453243 -2.950386,2.499269 -0.0055,0.06022 4.674832,1.206158 6.202878,1.518705 0.05129,0.0105 1.49913,-1.101965 3.217421,-2.472124 l 3.124166,-2.491198 0.385926,0.385927 0.385927,0.385927 -1.019692,1.073431 c -4.149599,4.368288 -5.233605,5.421899 -5.578305,5.421899 -0.197035,0 -1.337143,-0.234201 -2.533572,-0.520446 -1.19643,-0.286244 -2.223874,-0.501825 -2.283209,-0.479069 -0.05934,0.02276 0.514818,2.097688 1.275897,4.610954 0.761079,2.513267 2.118482,7.344318 3.016451,10.735668 l 1.632671,6.166094 0.502279,5.552656 c 0.276254,3.053962 0.50352,5.727429 0.505035,5.941039 0.0026,0.364091 -0.05025,0.394256 -0.844828,0.482311 -0.46617,0.05166 -1.162662,0.131862 -1.547759,0.178223 -0.623653,0.07508 -0.700177,0.05304 -0.700177,-0.201672 z"
     id="path6034"
     inkscape:connector-curvature="0" /><path
     style="fill:#ffffff;fill-opacity:1;fill-rule:evenodd;stroke:#ffffff;stroke-width:0.14740565;stroke-opacity:1"
     d="m 11.391688,50.700227 c -1.4498331,-0.56612 -2.2967591,-1.807256 -2.2967591,-3.365808 0,-1.070574 0.2209848,-1.676475 0.8888891,-2.437176 1.70806,-1.945372 4.748347,-1.543388 5.928623,0.783878 1.024634,2.020372 -0.0092,4.456218 -2.164137,5.099136 -0.948343,0.282931 -1.472675,0.265125 -2.356616,-0.08003 z"
     id="path6036"
     inkscape:connector-curvature="0" /><path
     style="fill:#ffffff;fill-opacity:1;fill-rule:evenodd;stroke:#ffffff;stroke-width:0.14740565;stroke-opacity:1"
     d="m 47.445221,49.139322 c -2.642489,-1.316808 -2.62331,-5.248824 0.03163,-6.485033 0.941107,-0.438203 2.252609,-0.471191 3.112769,-0.07829 0.771641,0.352464 1.779136,1.461754 1.977965,2.177813 0.399412,1.438442 0.09242,2.63517 -0.94113,3.668718 -1.179364,1.179364 -2.722214,1.443856 -4.181236,0.716795 z"
     id="path6038"
     inkscape:connector-curvature="0" /><path
     style="fill:#ffffff;fill-opacity:1;fill-rule:evenodd;stroke:#ffffff;stroke-width:0.14740565;stroke-opacity:1"
     d="m 53.243804,90.145121 c -0.03622,-0.168629 -0.363459,-2.830858 -0.727195,-5.916064 -0.592448,-5.025152 -0.770508,-6.1074 -1.709386,-10.389674 -0.576429,-2.629116 -1.075219,-4.807378 -1.108425,-4.840583 -0.09034,-0.09034 -0.116686,2.95e-4 -1.391563,4.786824 l -1.181646,4.436488 v 5.531819 c 0,3.042502 -0.04146,5.73911 -0.09213,5.992464 l -0.09213,0.460642 h -1.536797 -1.536798 l 0.09374,-6.227889 0.09374,-6.227889 1.314083,-4.972426 1.314082,-4.972427 -3.39e-4,-2.913776 c -1.91e-4,-1.602577 -0.04352,-4.440941 -0.0963,-6.307474 l -0.09596,-3.393698 -3.625691,-1.873183 -3.625691,-1.873184 -1.728791,-4.314487 c -0.950835,-2.372967 -1.768785,-4.426085 -1.817666,-4.562483 -0.06332,-0.176687 0.04566,-0.317565 0.378987,-0.489937 0.257324,-0.133068 0.485722,-0.220467 0.50755,-0.194221 0.02183,0.02625 0.883342,1.772367 1.914475,3.880268 l 1.874787,3.832547 3.807223,1.805719 3.807224,1.80572 h 1.244629 1.244628 l 3.817439,-1.80572 3.81744,-1.805719 1.916274,-3.861355 1.916273,-3.861355 0.491922,0.211354 c 0.270557,0.116244 0.469555,0.271992 0.442217,0.346105 -0.02734,0.07411 -0.845695,2.126575 -1.818573,4.561025 l -1.768868,4.426274 -3.359708,1.754681 -3.359708,1.754682 0.0081,6.252337 0.0081,6.252337 1.178013,5.321071 c 1.097903,4.959207 1.226473,5.726078 1.890571,11.276533 0.391907,3.275505 0.693172,5.980051 0.669479,6.010104 -0.02369,0.03005 -0.711018,0.134855 -1.527393,0.232895 -1.45462,0.174686 -1.485634,0.172118 -1.550174,-0.128345 z"
     id="path6040"
     inkscape:connector-curvature="0" /><path
     style="fill:#ffffff;fill-opacity:1;fill-rule:evenodd;stroke:#ffffff;stroke-width:0.14740565;stroke-opacity:1"
     d="m 76.184634,90.746473 -1.52763,-0.13142 0.08326,-0.683076 c 0.04579,-0.375691 0.293363,-3.037882 0.550158,-5.915977 l 0.4669,-5.232901 1.320024,-5.306604 c 0.726013,-2.918632 1.355565,-5.472435 1.399005,-5.675118 0.04344,-0.202683 0.873224,-3.012972 1.843965,-6.245086 0.970742,-3.232115 1.709708,-5.924992 1.642147,-5.984171 -0.06756,-0.05918 -0.951996,-0.392948 -1.965409,-0.741709 -3.143806,-1.081924 -4.095974,-1.475758 -4.202388,-1.738186 -0.109165,-0.269215 -1.838529,-8.633387 -1.793943,-8.676517 0.01452,-0.01405 0.266642,-0.07041 0.56027,-0.125246 0.499165,-0.09323 0.544156,-0.0702 0.692131,0.354283 0.101195,0.290289 0.126515,1.196288 0.07022,2.512578 -0.07358,1.720547 -0.04745,2.164877 0.159161,2.705879 0.31816,0.833089 0.459756,0.959027 3.425185,3.046414 l 2.489717,1.75253 0.479069,-0.530415 c 0.263487,-0.291729 0.476655,-0.60228 0.473705,-0.690114 -0.0029,-0.08783 -1.058615,-1.022021 -2.345924,-2.075971 -1.287309,-1.053951 -2.403426,-2.048939 -2.48026,-2.211085 -0.08908,-0.187987 -0.07199,-1.870475 0.04717,-4.643278 0.102777,-2.391657 0.193153,-4.369055 0.200835,-4.394217 0.0077,-0.02516 0.262,-0.02516 0.565151,0 l 0.551183,0.04575 0.320951,3.78007 c 0.176523,2.079039 0.343069,3.92442 0.370102,4.100847 0.03259,0.212718 1.336418,1.372491 3.870426,3.442807 4.181278,3.416158 4.431087,3.701167 4.412692,5.034471 -0.0069,0.501937 -0.563794,2.558137 -1.726752,6.375901 l -1.716531,5.635041 v 5.253485 5.253485 l 1.335273,5.157786 c 0.7344,2.836782 1.304338,5.18872 1.26653,5.226528 -0.174293,0.174294 -2.794484,0.796041 -2.89289,0.686457 -0.06113,-0.06807 -0.733073,-2.478571 -1.493215,-5.356666 l -1.382074,-5.232901 0.05006,-3.795696 0.05006,-3.795696 h -0.818683 c -0.971465,0 -0.884598,-0.249686 -1.12823,3.242925 -0.08766,1.256633 -0.255283,2.749116 -0.3725,3.316627 -0.117217,0.567512 -0.44309,3.577329 -0.724164,6.688484 -0.281073,3.111154 -0.530411,5.666652 -0.554084,5.678882 -0.02367,0.01223 -0.730475,-0.0369 -1.570671,-0.10918 z"
     id="path6042"
     inkscape:connector-curvature="0" /><path
     style="fill:#ffffff;fill-opacity:1;fill-rule:evenodd;stroke:#ffffff;stroke-width:0.14740565;stroke-opacity:1"
     d="m 86.13318,50.64229 c -2.064343,-0.768329 -3.031723,-3.13887 -2.069172,-5.070457 1.272565,-2.553707 4.645974,-2.74279 6.316017,-0.354021 0.363355,0.519731 0.452643,0.813692 0.499608,1.644854 0.03214,0.568771 -0.02212,1.252328 -0.123885,1.560674 -0.232477,0.704411 -1.067741,1.627459 -1.819928,2.011196 -0.760886,0.388175 -2.059288,0.484423 -2.80264,0.207754 z"
     id="path6044"
     inkscape:connector-curvature="0" /></svg>