<?xml version="1.0" encoding="UTF-8" standalone="no"?>
<svg
   xmlns:dc="http://purl.org/dc/elements/1.1/"
   xmlns:cc="http://creativecommons.org/ns#"
   xmlns:rdf="http://www.w3.org/1999/02/22-rdf-syntax-ns#"
   xmlns:svg="http://www.w3.org/2000/svg"
   xmlns="http://www.w3.org/2000/svg"
   xmlns:sodipodi="http://sodipodi.sourceforge.net/DTD/sodipodi-0.dtd"
   xmlns:inkscape="http://www.inkscape.org/namespaces/inkscape"
   version="1.1"
   x="0px"
   y="0px"
   viewBox="0 0 100 125"
   enable-background="new 0 0 100 100"
   xml:space="preserve"
   id="svg3867"
   sodipodi:docname="swf-controller.svg"
   inkscape:version="0.92.2 (5c3e80d, 2017-08-06)"><metadata
     id="metadata3873"><rdf:RDF><cc:Work
         rdf:about=""><dc:format>image/svg+xml</dc:format><dc:type
           rdf:resource="http://purl.org/dc/dcmitype/StillImage" /><dc:title></dc:title></cc:Work></rdf:RDF></metadata><defs
     id="defs3871" /><sodipodi:namedview
     pagecolor="#ffffff"
     bordercolor="#666666"
     borderopacity="1"
     objecttolerance="10"
     gridtolerance="10"
     guidetolerance="10"
     inkscape:pageopacity="0"
     inkscape:pageshadow="2"
     inkscape:window-width="1920"
     inkscape:window-height="1017"
     id="namedview3869"
     showgrid="false"
     inkscape:zoom="7.2407734"
     inkscape:cx="45.014123"
     inkscape:cy="87.229213"
     inkscape:window-x="-8"
     inkscape:window-y="-8"
     inkscape:window-maximized="1"
     inkscape:current-layer="svg3867" /><g
     id="g3861"
     transform="rotate(-15,52.014128,50.265165)"><path
       d="M 73.089,31.089 C 83.517,31.089 92,39.572 92,50 c 0,10.428 -8.483,18.911 -18.911,18.911 -5.992,0 -11.692,-2.889 -15.248,-7.729 -0.565,-0.769 -1.463,-1.224 -2.418,-1.224 H 44.577 c -0.955,0 -1.852,0.454 -2.418,1.224 -3.556,4.84 -9.256,7.729 -15.248,7.729 C 16.483,68.911 8,60.428 8,50 8,39.572 16.483,31.089 26.911,31.089 h 46.178 m 0,-3 H 26.911 C 14.81,28.089 5,37.899 5,50 c 0,12.101 9.81,21.911 21.911,21.911 7.252,0 13.678,-3.525 17.666,-8.953 h 10.846 c 3.988,5.428 10.414,8.953 17.666,8.953 C 85.19,71.911 95,62.101 95,50 95,37.899 85.19,28.089 73.089,28.089 Z"
       id="path3851"
       inkscape:connector-curvature="0" /><g
       id="g3857"><circle
         cx="78.803001"
         cy="44.285999"
         r="5"
         id="circle3853" /><circle
         cx="67.375"
         cy="55.714001"
         r="5"
         id="circle3855" /></g><path
       d="m 35.639,46.416 h -5.145 v -5.144 c 0,-1.979 -1.605,-3.584 -3.584,-3.584 v 0 c -1.979,0 -3.584,1.605 -3.584,3.584 v 5.144 h -5.144 c -1.979,0 -3.584,1.605 -3.584,3.584 v 0 c 0,1.979 1.605,3.584 3.584,3.584 h 5.144 v 5.145 c 0,1.979 1.605,3.584 3.584,3.584 v 0 c 1.979,0 3.584,-1.605 3.584,-3.584 v -5.145 h 5.145 c 1.979,0 3.584,-1.605 3.584,-3.584 v 0 c 10e-4,-1.979 -1.604,-3.584 -3.584,-3.584 z"
       id="path3859"
       inkscape:connector-curvature="0" /></g></svg>